# xmcd CD database file
#
# Track frame offsets:
#	150
#	4417
#	23927
#	45277
#	67895
#	89862
#	112397
#	131692
#	148717
#	172852
#	197497
#	220092
#	244467
#	248200
#	265357
#
# Disc length: 3773 seconds
#
# Revision: 0
# Processed by: cddbd v1.4PL0 Copyright (c) Steve Scherf et al.
# Submitted via: CDex 1.50beta10
#
DISCID=e00ebb0f
DTITLE=Sounds of Blackness - reconciliation
DYEAR=2000
DGENRE=Blues
TTITLE0=dj intros
TTITLE1=Try
TTITLE2=You are the one
TTITLE3=Thank you
TTITLE4=Reconciliation
TTITLE5=Twenty four and back again
TTITLE6=For old times sake
TTITLE7=Tell me what you thinkin
TTITLE8=Rainbow
TTITLE9=Love will change things
TTITLE10=Don't be afraid to dream
TTITLE11=Straight ahead
TTITLE12=Reconciliation blues (interlude)
TTITLE13=Sounds of blackness/Take the 'a' train
TTITLE14=Try (Mickey P Remix)
EXTD=YEAR: 2000
EXTT0=
EXTT1=
EXTT2=
EXTT3=
EXTT4=
EXTT5=
EXTT6=
EXTT7=
EXTT8=
EXTT9=
EXTT10=
EXTT11=
EXTT12=
EXTT13=
EXTT14=
PLAYORDER=
